<mxfile host="Electron" agent="Mozilla/5.0 (Windows NT 10.0; Win64; x64) AppleWebKit/537.36 (KHTML, like Gecko) draw.io/25.0.1 Chrome/128.0.6613.186 Electron/32.2.6 Safari/537.36" version="25.0.1">
  <diagram name="Page-1" id="ACE_YkRk9gRsmOF9oO3W">
    <mxGraphModel dx="1404" dy="814" grid="1" gridSize="10" guides="1" tooltips="1" connect="1" arrows="1" fold="1" page="1" pageScale="1" pageWidth="1100" pageHeight="850" math="0" shadow="0">
      <root>
        <mxCell id="0" />
        <mxCell id="1" parent="0" />
        <mxCell id="u0GYLq39sxuuFqXlyobT-2" value="&lt;span style=&quot;color: rgba(0, 0, 0, 0); font-family: monospace; font-size: 0px; text-align: start; text-wrap: nowrap;&quot;&gt;%3CmxGraphModel%3E%3Croot%3E%3CmxCell%20id%3D%220%22%2F%3E%3CmxCell%20id%3D%221%22%20parent%3D%220%22%2F%3E%3CmxCell%20id%3D%222%22%20value%3D%22Edit%20Field%22%20style%3D%22rounded%3D0%3BwhiteSpace%3Dwrap%3Bhtml%3D1%3Balign%3Dleft%3B%22%20vertex%3D%221%22%20parent%3D%221%22%3E%3CmxGeometry%20x%3D%22280%22%20y%3D%22210%22%20width%3D%22390%22%20height%3D%2230%22%20as%3D%22geometry%22%2F%3E%3C%2FmxCell%3E%3C%2Froot%3E%3C%2FmxGraphModel%3E&lt;/span&gt;" style="rounded=0;whiteSpace=wrap;html=1;" parent="1" vertex="1">
          <mxGeometry x="80" y="80" width="920" height="520" as="geometry" />
        </mxCell>
        <mxCell id="u0GYLq39sxuuFqXlyobT-3" value="" style="rounded=0;whiteSpace=wrap;html=1;align=left;" parent="1" vertex="1">
          <mxGeometry x="80" y="80" width="920" height="70" as="geometry" />
        </mxCell>
        <mxCell id="u0GYLq39sxuuFqXlyobT-8" value="" style="rounded=0;whiteSpace=wrap;html=1;align=right;" parent="1" vertex="1">
          <mxGeometry x="80" y="540" width="920" height="60" as="geometry" />
        </mxCell>
        <mxCell id="u0GYLq39sxuuFqXlyobT-9" value="&lt;span style=&quot;&quot;&gt;Copywright 2024&lt;/span&gt;&lt;div style=&quot;&quot;&gt;&amp;nbsp;Richard Maida Jimenez&lt;/div&gt;" style="rounded=0;whiteSpace=wrap;html=1;align=right;" parent="1" vertex="1">
          <mxGeometry x="850" y="540" width="140" height="60" as="geometry" />
        </mxCell>
        <mxCell id="u0GYLq39sxuuFqXlyobT-13" value="&lt;font style=&quot;font-size: 14px;&quot;&gt;FUND BROKER:&lt;/font&gt;&lt;div&gt;&lt;font style=&quot;font-size: 24px;&quot;&gt;CLIENT SEARCH&lt;/font&gt;&lt;/div&gt;" style="rounded=0;whiteSpace=wrap;html=1;align=left;" parent="1" vertex="1">
          <mxGeometry x="80" y="80" width="300" height="70" as="geometry" />
        </mxCell>
        <mxCell id="u0GYLq39sxuuFqXlyobT-15" value="Enter Client Code:" style="rounded=0;whiteSpace=wrap;html=1;align=right;" parent="1" vertex="1">
          <mxGeometry x="760" y="150" width="110" height="30" as="geometry" />
        </mxCell>
        <mxCell id="u0GYLq39sxuuFqXlyobT-16" value="&lt;div style=&quot;&quot;&gt;&lt;b style=&quot;background-color: initial;&quot;&gt;&lt;font style=&quot;font-size: 14px;&quot;&gt;Enter Search Parameters&lt;/font&gt;&lt;/b&gt;&lt;/div&gt;" style="rounded=0;whiteSpace=wrap;html=1;align=right;" parent="1" vertex="1">
          <mxGeometry x="100" y="150" width="180" height="30" as="geometry" />
        </mxCell>
        <mxCell id="u0GYLq39sxuuFqXlyobT-18" value="Edit Field" style="rounded=0;whiteSpace=wrap;html=1;" parent="1" vertex="1">
          <mxGeometry x="870" y="150" width="120" height="30" as="geometry" />
        </mxCell>
        <mxCell id="u0GYLq39sxuuFqXlyobT-21" value="Surname:" style="rounded=0;whiteSpace=wrap;html=1;align=right;" parent="1" vertex="1">
          <mxGeometry x="100" y="180" width="180" height="30" as="geometry" />
        </mxCell>
        <mxCell id="u0GYLq39sxuuFqXlyobT-22" value="Forename:" style="rounded=0;whiteSpace=wrap;html=1;align=right;" parent="1" vertex="1">
          <mxGeometry x="100" y="210" width="180" height="30" as="geometry" />
        </mxCell>
        <mxCell id="u0GYLq39sxuuFqXlyobT-23" value="AML Flag" style="rounded=0;whiteSpace=wrap;html=1;align=right;" parent="1" vertex="1">
          <mxGeometry x="100" y="420" width="180" height="30" as="geometry" />
        </mxCell>
        <mxCell id="u0GYLq39sxuuFqXlyobT-24" value="Status" style="rounded=0;whiteSpace=wrap;html=1;align=right;" parent="1" vertex="1">
          <mxGeometry x="100" y="390" width="180" height="30" as="geometry" />
        </mxCell>
        <mxCell id="u0GYLq39sxuuFqXlyobT-25" value="Bank Account No:" style="rounded=0;whiteSpace=wrap;html=1;align=right;" parent="1" vertex="1">
          <mxGeometry x="100" y="510" width="180" height="30" as="geometry" />
        </mxCell>
        <mxCell id="u0GYLq39sxuuFqXlyobT-26" value="Bank Sort Code:" style="rounded=0;whiteSpace=wrap;html=1;align=right;" parent="1" vertex="1">
          <mxGeometry x="100" y="480" width="180" height="30" as="geometry" />
        </mxCell>
        <mxCell id="u0GYLq39sxuuFqXlyobT-27" value="Bank Name:" style="rounded=0;whiteSpace=wrap;html=1;align=right;" parent="1" vertex="1">
          <mxGeometry x="100" y="450" width="180" height="30" as="geometry" />
        </mxCell>
        <mxCell id="u0GYLq39sxuuFqXlyobT-28" value="End Date" style="rounded=0;whiteSpace=wrap;html=1;align=right;" parent="1" vertex="1">
          <mxGeometry x="100" y="360" width="180" height="30" as="geometry" />
        </mxCell>
        <mxCell id="u0GYLq39sxuuFqXlyobT-29" value="Start Date" style="rounded=0;whiteSpace=wrap;html=1;align=right;" parent="1" vertex="1">
          <mxGeometry x="100" y="330" width="180" height="30" as="geometry" />
        </mxCell>
        <mxCell id="u0GYLq39sxuuFqXlyobT-30" value="N.I. Number:" style="rounded=0;whiteSpace=wrap;html=1;align=right;" parent="1" vertex="1">
          <mxGeometry x="100" y="300" width="180" height="30" as="geometry" />
        </mxCell>
        <mxCell id="u0GYLq39sxuuFqXlyobT-31" value="Date Of Birth:" style="rounded=0;whiteSpace=wrap;html=1;align=right;" parent="1" vertex="1">
          <mxGeometry x="100" y="270" width="180" height="30" as="geometry" />
        </mxCell>
        <mxCell id="u0GYLq39sxuuFqXlyobT-32" value="Title:" style="rounded=0;whiteSpace=wrap;html=1;align=right;" parent="1" vertex="1">
          <mxGeometry x="100" y="240" width="180" height="30" as="geometry" />
        </mxCell>
        <mxCell id="u0GYLq39sxuuFqXlyobT-33" value="Edit Field" style="rounded=0;whiteSpace=wrap;html=1;align=left;" parent="1" vertex="1">
          <mxGeometry x="280" y="180" width="390" height="30" as="geometry" />
        </mxCell>
        <mxCell id="u0GYLq39sxuuFqXlyobT-34" value="Edit Field" style="rounded=0;whiteSpace=wrap;html=1;align=left;" parent="1" vertex="1">
          <mxGeometry x="280" y="210" width="390" height="30" as="geometry" />
        </mxCell>
        <mxCell id="u0GYLq39sxuuFqXlyobT-36" value="Drop Down" style="rounded=0;whiteSpace=wrap;html=1;align=left;" parent="1" vertex="1">
          <mxGeometry x="280" y="240" width="90" height="30" as="geometry" />
        </mxCell>
        <mxCell id="u0GYLq39sxuuFqXlyobT-39" value="Edit Field" style="rounded=0;whiteSpace=wrap;html=1;align=left;" parent="1" vertex="1">
          <mxGeometry x="280" y="330" width="90" height="30" as="geometry" />
        </mxCell>
        <mxCell id="u0GYLq39sxuuFqXlyobT-40" value="Drop Down" style="rounded=0;whiteSpace=wrap;html=1;align=left;" parent="1" vertex="1">
          <mxGeometry x="280" y="390" width="140" height="30" as="geometry" />
        </mxCell>
        <mxCell id="u0GYLq39sxuuFqXlyobT-41" value="Edit Field" style="rounded=0;whiteSpace=wrap;html=1;align=left;" parent="1" vertex="1">
          <mxGeometry x="280" y="360" width="90" height="30" as="geometry" />
        </mxCell>
        <mxCell id="u0GYLq39sxuuFqXlyobT-42" value="Edit Field" style="rounded=0;whiteSpace=wrap;html=1;align=left;" parent="1" vertex="1">
          <mxGeometry x="280" y="270" width="90" height="30" as="geometry" />
        </mxCell>
        <mxCell id="u0GYLq39sxuuFqXlyobT-44" value="Edit Field" style="rounded=0;whiteSpace=wrap;html=1;align=left;" parent="1" vertex="1">
          <mxGeometry x="280" y="300" width="140" height="30" as="geometry" />
        </mxCell>
        <mxCell id="u0GYLq39sxuuFqXlyobT-45" value="Checkbox" style="rounded=0;whiteSpace=wrap;html=1;align=left;" parent="1" vertex="1">
          <mxGeometry x="280" y="420" width="90" height="30" as="geometry" />
        </mxCell>
        <mxCell id="u0GYLq39sxuuFqXlyobT-46" value="Edit Field" style="rounded=0;whiteSpace=wrap;html=1;align=left;" parent="1" vertex="1">
          <mxGeometry x="280" y="450" width="390" height="30" as="geometry" />
        </mxCell>
        <mxCell id="u0GYLq39sxuuFqXlyobT-47" value="Edit Field" style="rounded=0;whiteSpace=wrap;html=1;align=left;" parent="1" vertex="1">
          <mxGeometry x="280" y="480" width="90" height="30" as="geometry" />
        </mxCell>
        <mxCell id="u0GYLq39sxuuFqXlyobT-49" value="Edit Field" style="rounded=0;whiteSpace=wrap;html=1;align=left;" parent="1" vertex="1">
          <mxGeometry x="280" y="510" width="140" height="30" as="geometry" />
        </mxCell>
        <mxCell id="u0GYLq39sxuuFqXlyobT-50" value="Search" style="rounded=1;whiteSpace=wrap;html=1;" parent="1" vertex="1">
          <mxGeometry x="870" y="500" width="110" height="35" as="geometry" />
        </mxCell>
        <mxCell id="9rog41KFuSrF66GenIp_-1" value="LOGIN/&lt;div&gt;LOGOUT&lt;/div&gt;" style="rounded=0;whiteSpace=wrap;html=1;" vertex="1" parent="1">
          <mxGeometry x="918" y="96" width="71" height="40" as="geometry" />
        </mxCell>
        <mxCell id="9rog41KFuSrF66GenIp_-2" value="CLIENTS" style="rounded=0;whiteSpace=wrap;html=1;" vertex="1" parent="1">
          <mxGeometry x="448" y="96" width="73" height="40" as="geometry" />
        </mxCell>
        <mxCell id="9rog41KFuSrF66GenIp_-3" value="FUNDS" style="rounded=0;whiteSpace=wrap;html=1;" vertex="1" parent="1">
          <mxGeometry x="530" y="96" width="70" height="40" as="geometry" />
        </mxCell>
        <mxCell id="9rog41KFuSrF66GenIp_-4" value="TRADES" style="rounded=0;whiteSpace=wrap;html=1;" vertex="1" parent="1">
          <mxGeometry x="608" y="96" width="63" height="40" as="geometry" />
        </mxCell>
        <mxCell id="9rog41KFuSrF66GenIp_-5" value="CONTRACT&lt;div&gt;NOTES&lt;/div&gt;" style="rounded=0;whiteSpace=wrap;html=1;" vertex="1" parent="1">
          <mxGeometry x="678" y="96" width="70" height="40" as="geometry" />
        </mxCell>
        <mxCell id="9rog41KFuSrF66GenIp_-6" value="USERS" style="rounded=0;whiteSpace=wrap;html=1;" vertex="1" parent="1">
          <mxGeometry x="758" y="96" width="70" height="40" as="geometry" />
        </mxCell>
        <mxCell id="9rog41KFuSrF66GenIp_-7" value="AUDIT" style="rounded=0;whiteSpace=wrap;html=1;" vertex="1" parent="1">
          <mxGeometry x="838" y="96" width="70" height="40" as="geometry" />
        </mxCell>
      </root>
    </mxGraphModel>
  </diagram>
</mxfile>
